<svg width="44" height="44" viewBox="0 0 44 44" fill="none" xmlns="http://www.w3.org/2000/svg">
<g clip-path="url(#clip0_632_1151)">
<path fill-rule="evenodd" clip-rule="evenodd" d="M19.25 3.66663C16.7651 3.66684 14.3163 4.26129 12.1078 5.4004C9.89936 6.5395 7.99534 8.19022 6.55461 10.2148C5.11387 12.2395 4.17819 14.5793 3.82564 17.039C3.47309 19.4988 3.71388 22.0072 4.52793 24.355C5.34199 26.7028 6.70569 28.8219 8.50527 30.5355C10.3049 32.249 12.4881 33.5074 14.8729 34.2056C17.2578 34.9037 19.775 35.0215 22.2145 34.549C24.6541 34.0765 26.9453 33.0274 28.897 31.4893L35.5923 38.1846C35.9381 38.5186 36.4012 38.7034 36.8819 38.6992C37.3626 38.695 37.8224 38.5022 38.1623 38.1623C38.5023 37.8224 38.6951 37.3626 38.6992 36.8819C38.7034 36.4012 38.5186 35.9381 38.1847 35.5923L31.4893 28.897C33.3007 26.5991 34.4285 23.8377 34.7437 20.9288C35.0589 18.0199 34.5488 15.081 33.2717 12.4485C31.9947 9.81593 30.0023 7.59611 27.5226 6.04305C25.0428 4.48999 22.1759 3.66643 19.25 3.66663ZM7.33334 19.25C7.33334 16.0895 8.58884 13.0584 10.8237 10.8236C13.0585 8.58879 16.0895 7.33329 19.25 7.33329C22.4105 7.33329 25.4416 8.58879 27.6764 10.8236C29.9112 13.0584 31.1667 16.0895 31.1667 19.25C31.1667 22.4105 29.9112 25.4415 27.6764 27.6763C25.4416 29.9111 22.4105 31.1666 19.25 31.1666C16.0895 31.1666 13.0585 29.9111 10.8237 27.6763C8.58884 25.4415 7.33334 22.4105 7.33334 19.25Z" fill="black"/>
</g>
<defs>
<clipPath id="clip0_632_1151">
<rect width="44" height="44" fill="white"/>
</clipPath>
</defs>
</svg>
