<svg width="44" height="44" viewBox="0 0 44 44" fill="none" xmlns="http://www.w3.org/2000/svg">
    <rect width="44" height="44" fill="#D9D9D9" />
    <g id="Landing Page" clip-path="url(#clip0_258_597)">
        <rect width="1440" height="8248" transform="translate(-1042 -1705)" fill="white" />
        <g id="Frame 1000003749">
            <g id="Frame 1000003748">
                <g id="Make A Donation">
                    <g id="fluent-mdl2:trackers">
                        <path id="Vector"
                            d="M38.5 5.5V44H5.5V5.5H16.5C16.5 4.74089 16.6432 4.0319 16.9297 3.37305C17.2161 2.71419 17.61 2.12695 18.1113 1.61133C18.6126 1.0957 19.1927 0.701823 19.8516 0.429688C20.5104 0.157552 21.2266 0.0143229 22 0C22.7591 0 23.4681 0.143229 24.127 0.429688C24.7858 0.716146 25.373 1.11003 25.8887 1.61133C26.4043 2.11263 26.7982 2.69271 27.0703 3.35156C27.3424 4.01042 27.4857 4.72656 27.5 5.5H38.5ZM13.75 11H30.25V8.25H24.75V5.5C24.75 5.11328 24.6784 4.75521 24.5352 4.42578C24.3919 4.09635 24.1986 3.8099 23.9551 3.56641C23.7116 3.32292 23.418 3.1224 23.0742 2.96484C22.7305 2.80729 22.3724 2.73568 22 2.75C21.6133 2.75 21.2552 2.82161 20.9258 2.96484C20.5964 3.10807 20.3099 3.30143 20.0664 3.54492C19.8229 3.78841 19.6224 4.08203 19.4648 4.42578C19.3073 4.76953 19.2357 5.1276 19.25 5.5V8.25H13.75V11ZM35.75 8.25H33V13.75H11V8.25H8.25V41.25H35.75V8.25ZM22 19.25H33V22H22V19.25ZM22 27.5H33V30.25H22V27.5ZM22 35.75H33V38.5H22V35.75ZM18.2832 15.5332L20.2168 17.4668L15.125 22.5586L11.4082 18.8418L13.3418 16.9082L15.125 18.6914L18.2832 15.5332ZM18.2832 23.7832L20.2168 25.7168L15.125 30.8086L11.4082 27.0918L13.3418 25.1582L15.125 26.9414L18.2832 23.7832ZM18.2832 32.0332L20.2168 33.9668L15.125 39.0586L11.4082 35.3418L13.3418 33.4082L15.125 35.1914L18.2832 32.0332Z"
                            fill="#00000070" />
                    </g>
                </g>
            </g>
        </g>
    </g>
    <defs>
        <clipPath id="clip0_258_597">
            <rect width="1440" height="8248" fill="white" transform="translate(-1042 -1705)" />
        </clipPath>
    </defs>
</svg>