<svg width="25" height="24" viewBox="0 0 25 24" fill="none" xmlns="http://www.w3.org/2000/svg">
    <path
        d="M12.5 1.5C6.69969 1.5 2 6.19969 2 12C2 17.8003 6.69969 22.5 12.5 22.5C18.3003 22.5 23 17.8003 23 12C23 6.19969 18.3003 1.5 12.5 1.5ZM8.51562 16.5886C8.45119 16.6985 8.35896 16.7895 8.24821 16.8524C8.13745 16.9154 8.01208 16.9481 7.88469 16.9472C7.75485 16.9483 7.62727 16.9133 7.51625 16.8459C7.43359 16.798 7.3612 16.7343 7.30324 16.6583C7.24528 16.5824 7.20288 16.4957 7.17849 16.4034C7.1541 16.311 7.1482 16.2147 7.16111 16.12C7.17403 16.0254 7.20551 15.9342 7.25375 15.8517L7.97047 14.6602C8.00669 14.5987 8.05836 14.5477 8.12036 14.5123C8.18236 14.477 8.25253 14.4585 8.32391 14.4586H8.42984C8.94969 14.4586 9.31344 14.7712 9.41937 15.0741L8.51562 16.5886ZM14.5836 14.2448L9.89 14.25H6.77047C6.67232 14.2504 6.57511 14.2309 6.48474 14.1926C6.39436 14.1543 6.3127 14.0981 6.24472 14.0273C6.17673 13.9565 6.12384 13.8726 6.08924 13.7808C6.05464 13.6889 6.03906 13.591 6.04344 13.493C6.05844 13.0992 6.40203 12.8011 6.79344 12.8011H9.05469L11.7355 8.23781L10.8673 6.75891C10.6719 6.42188 10.7586 5.9775 11.0938 5.76562C11.1764 5.71219 11.269 5.67601 11.3659 5.65927C11.4629 5.64253 11.5622 5.64557 11.658 5.6682C11.7538 5.69084 11.844 5.73261 11.9232 5.791C12.0024 5.84939 12.069 5.92319 12.1189 6.00797L12.583 6.80062H12.5881L13.0527 6.00797C13.1027 5.92363 13.1691 5.85022 13.2481 5.79213C13.3271 5.73403 13.417 5.69244 13.5124 5.66982C13.6078 5.6472 13.7068 5.64403 13.8034 5.66049C13.9001 5.67695 13.9925 5.71271 14.075 5.76562C14.4083 5.9775 14.4941 6.42188 14.2972 6.76031L13.4291 8.23922L12.5853 9.67781L10.753 12.8025V12.8077H13.4534C13.7919 12.8077 14.2161 12.9895 14.3877 13.282L14.4027 13.3125C14.5541 13.5698 14.6398 13.7466 14.6398 14.0039C14.6374 14.0875 14.6187 14.1698 14.585 14.2463L14.5836 14.2448ZM18.2281 14.25H16.9573V14.2552L17.8864 15.8353C17.9863 16.0017 18.0169 16.2007 17.9716 16.3895C17.9263 16.5782 17.8087 16.7416 17.6441 16.8445C17.53 16.9141 17.3989 16.9509 17.2653 16.9509C17.1383 16.9509 17.0134 16.918 16.9028 16.8554C16.7923 16.7928 16.6998 16.7027 16.6344 16.5938L15.2614 14.2566L14.4083 12.8034L13.3077 10.9219C13.1482 10.6532 13.0616 10.3476 13.0562 10.0353C13.0509 9.72294 13.1271 9.41458 13.2772 9.14062C13.4947 8.75672 13.6611 8.65594 13.6611 8.65594L16.1094 12.7969H18.2145C18.6083 12.7969 18.9463 13.0997 18.9645 13.4883C18.9683 13.5871 18.9521 13.6856 18.9168 13.778C18.8816 13.8704 18.828 13.9546 18.7594 14.0258C18.6907 14.0969 18.6084 14.1535 18.5174 14.192C18.4263 14.2305 18.3284 14.2503 18.2295 14.25H18.2281Z"
        fill="black" />
</svg>