<svg width="94" height="24" viewBox="0 0 94 24" fill="none" xmlns="http://www.w3.org/2000/svg">
<path d="M16.1871 7.15625H12.4542C12.386 6.6733 12.2468 6.24432 12.0366 5.86932C11.8264 5.48864 11.5565 5.16477 11.2269 4.89773C10.8974 4.63068 10.5167 4.42614 10.0849 4.28409C9.65874 4.14205 9.19567 4.07102 8.69567 4.07102C7.79226 4.07102 7.00533 4.29545 6.33487 4.74432C5.66442 5.1875 5.14453 5.83523 4.77521 6.6875C4.4059 7.53409 4.22124 8.5625 4.22124 9.77273C4.22124 11.017 4.4059 12.0625 4.77521 12.9091C5.15021 13.7557 5.67294 14.3949 6.34339 14.8267C7.01385 15.2585 7.78942 15.4744 8.6701 15.4744C9.16442 15.4744 9.6218 15.4091 10.0423 15.2784C10.4684 15.1477 10.8462 14.9574 11.1758 14.7074C11.5053 14.4517 11.7781 14.142 11.994 13.7784C12.2156 13.4148 12.369 13 12.4542 12.5341L16.1871 12.5511C16.0906 13.3523 15.8491 14.125 15.4627 14.8693C15.082 15.608 14.5678 16.2699 13.9201 16.8551C13.2781 17.4347 12.511 17.8949 11.619 18.2358C10.7326 18.571 9.72976 18.7386 8.61044 18.7386C7.05362 18.7386 5.66158 18.3864 4.4343 17.6818C3.21271 16.9773 2.2468 15.9574 1.53658 14.6222C0.832031 13.2869 0.479759 11.6705 0.479759 9.77273C0.479759 7.86932 0.837713 6.25 1.55362 4.91477C2.26953 3.57955 3.24112 2.5625 4.4684 1.86364C5.69567 1.15909 7.07635 0.806818 8.61044 0.806818C9.6218 0.806818 10.5593 0.948863 11.4229 1.23295C12.2923 1.51705 13.0621 1.93182 13.7326 2.47727C14.4031 3.01704 14.9485 3.67898 15.369 4.46307C15.7951 5.24716 16.0678 6.14489 16.1871 7.15625ZM39.3988 18.7557C38.0579 18.7557 36.9045 18.4716 35.9386 17.9034C34.9783 17.3295 34.2397 16.5341 33.7227 15.517C33.2113 14.5 32.9556 13.3295 32.9556 12.0057C32.9556 10.6648 33.2141 9.48864 33.7312 8.47727C34.2539 7.46023 34.9954 6.66761 35.9556 6.09943C36.9158 5.52557 38.0579 5.23864 39.3817 5.23864C40.5238 5.23864 41.5238 5.44602 42.3817 5.86079C43.2397 6.27557 43.9187 6.85795 44.4187 7.60795C44.9187 8.35795 45.1942 9.23864 45.2454 10.25H41.8192C41.7227 9.59659 41.467 9.07102 41.0522 8.6733C40.6431 8.26989 40.1062 8.06818 39.4414 8.06818C38.8789 8.06818 38.3874 8.22159 37.967 8.52841C37.5522 8.82955 37.2283 9.26989 36.9954 9.84943C36.7624 10.429 36.646 11.1307 36.646 11.9545C36.646 12.7898 36.7596 13.5 36.9869 14.0852C37.2198 14.6705 37.5465 15.1165 37.967 15.4233C38.3874 15.7301 38.8789 15.8835 39.4414 15.8835C39.8562 15.8835 40.2283 15.7983 40.5579 15.6278C40.8931 15.4574 41.1687 15.2102 41.3846 14.8864C41.6062 14.5568 41.7511 14.1619 41.8192 13.7017H45.2454C45.1886 14.7017 44.9158 15.5824 44.4272 16.3438C43.9442 17.0994 43.2766 17.6903 42.4244 18.1165C41.5721 18.5426 40.5636 18.7557 39.3988 18.7557ZM49.8114 23.4091C49.3512 23.4091 48.9194 23.3722 48.516 23.2983C48.1183 23.2301 47.7887 23.142 47.5273 23.0341L48.3455 20.3239C48.7717 20.4545 49.1552 20.5256 49.4961 20.5369C49.8427 20.5483 50.141 20.4688 50.391 20.2983C50.6467 20.1278 50.854 19.8381 51.0131 19.429L51.2262 18.875L46.5302 5.40909H50.3484L53.0586 15.0227H53.195L55.9308 5.40909H59.7745L54.6864 19.9148C54.4421 20.6193 54.1097 21.233 53.6893 21.7557C53.2745 22.2841 52.7489 22.6903 52.1126 22.9744C51.4762 23.2642 50.7092 23.4091 49.8114 23.4091ZM67.1254 18.7557C65.7844 18.7557 64.631 18.4716 63.6651 17.9034C62.7049 17.3295 61.9663 16.5341 61.4492 15.517C60.9379 14.5 60.6822 13.3295 60.6822 12.0057C60.6822 10.6648 60.9407 9.48864 61.4577 8.47727C61.9805 7.46023 62.7219 6.66761 63.6822 6.09943C64.6424 5.52557 65.7844 5.23864 67.1083 5.23864C68.2504 5.23864 69.2504 5.44602 70.1083 5.86079C70.9663 6.27557 71.6452 6.85795 72.1452 7.60795C72.6452 8.35795 72.9208 9.23864 72.9719 10.25H69.5458C69.4492 9.59659 69.1935 9.07102 68.7788 8.6733C68.3697 8.26989 67.8327 8.06818 67.168 8.06818C66.6055 8.06818 66.114 8.22159 65.6935 8.52841C65.2788 8.82955 64.9549 9.26989 64.7219 9.84943C64.489 10.429 64.3725 11.1307 64.3725 11.9545C64.3725 12.7898 64.4862 13.5 64.7134 14.0852C64.9464 14.6705 65.2731 15.1165 65.6935 15.4233C66.114 15.7301 66.6055 15.8835 67.168 15.8835C67.5827 15.8835 67.9549 15.7983 68.2844 15.6278C68.6197 15.4574 68.8952 15.2102 69.1112 14.8864C69.3327 14.5568 69.4776 14.1619 69.5458 13.7017H72.9719C72.9151 14.7017 72.6424 15.5824 72.1538 16.3438C71.6708 17.0994 71.0032 17.6903 70.1509 18.1165C69.2987 18.5426 68.2901 18.7557 67.1254 18.7557ZM78.9272 1.04545V18.5H75.2965V1.04545H78.9272Z" fill="black"/>
<path d="M24.68 18.7557C23.3562 18.7557 22.2113 18.4744 21.2454 17.9119C20.2852 17.3437 19.5437 16.554 19.021 15.5426C18.4982 14.5256 18.2369 13.3466 18.2369 12.0057C18.2369 10.6534 18.4982 9.47159 19.021 8.46023C19.5437 7.44318 20.2852 6.65341 21.2454 6.09091C22.2113 5.52273 23.3562 5.23864 24.68 5.23864C26.0039 5.23864 27.146 5.52273 28.1062 6.09091C29.0721 6.65341 29.8164 7.44318 30.3391 8.46023C30.8619 9.47159 31.1232 10.6534 31.1232 12.0057C31.1232 13.3466 30.8619 14.5256 30.3391 15.5426C29.8164 16.554 29.0721 17.3437 28.1062 17.9119C27.146 18.4744 26.0039 18.7557 24.68 18.7557ZM24.6971 15.9432C25.2994 15.9432 25.8022 15.7727 26.2056 15.4318C26.609 15.0852 26.913 14.6136 27.1175 14.017C27.3278 13.4205 27.4329 12.7415 27.4329 11.9801C27.4329 11.2188 27.3278 10.5398 27.1175 9.94318C26.913 9.34659 26.609 8.875 26.2056 8.52841C25.8022 8.18182 25.2994 8.00852 24.6971 8.00852C24.0891 8.00852 23.5778 8.18182 23.163 8.52841C22.7539 8.875 22.4442 9.34659 22.234 9.94318C22.0295 10.5398 21.9272 11.2188 21.9272 11.9801C21.9272 12.7415 22.0295 13.4205 22.234 14.017C22.4442 14.6136 22.7539 15.0852 23.163 15.4318C23.5778 15.7727 24.0891 15.9432 24.6971 15.9432ZM87.8015 18.7557C86.4549 18.7557 85.2958 18.483 84.3242 17.9375C83.3583 17.3864 82.614 16.608 82.0913 15.6023C81.5685 14.5909 81.3072 13.3949 81.3072 12.0142C81.3072 10.6676 81.5685 9.4858 82.0913 8.46875C82.614 7.4517 83.3498 6.65909 84.2987 6.09091C85.2532 5.52273 86.3725 5.23864 87.6566 5.23864C88.5202 5.23864 89.3242 5.37784 90.0685 5.65625C90.8185 5.92898 91.4719 6.34091 92.0288 6.89205C92.5913 7.44318 93.0288 8.13636 93.3413 8.97159C93.6538 9.80114 93.81 10.7727 93.81 11.8864V12.8835H82.756V10.6335H90.3924C90.3924 10.1108 90.2788 9.64773 90.0515 9.24432C89.8242 8.84091 89.5089 8.52557 89.1055 8.2983C88.7077 8.06534 88.2447 7.94886 87.7163 7.94886C87.1651 7.94886 86.6765 8.0767 86.2504 8.33239C85.8299 8.58239 85.5004 8.92045 85.2617 9.34659C85.0231 9.76705 84.9009 10.2358 84.8952 10.7528V12.892C84.8952 13.5398 85.0146 14.0994 85.2532 14.571C85.4975 15.0426 85.8413 15.4062 86.2844 15.6619C86.7276 15.9176 87.2532 16.0455 87.8612 16.0455C88.2646 16.0455 88.6339 15.9886 88.9691 15.875C89.3043 15.7614 89.5913 15.5909 89.8299 15.3636C90.0685 15.1364 90.2504 14.858 90.3754 14.5284L93.7333 14.75C93.5629 15.5568 93.2134 16.2614 92.685 16.8636C92.1623 17.4602 91.4862 17.9261 90.6566 18.2614C89.8327 18.5909 88.881 18.7557 87.8015 18.7557Z" fill="#398D1C"/>
</svg>
