<svg width="32" height="36" viewBox="0 0 32 36" fill="none" xmlns="http://www.w3.org/2000/svg">
<path d="M17.4521 17.2174L23.2155 11.2988L4.59983 0.5545C3.36606 -0.130031 2.21026 -0.226105 1.19674 0.522475L17.4521 17.2174ZM24.1978 24.1468L30.1893 20.6861C31.3588 20.0136 32 19.0609 32 18.004C32 16.9492 31.3588 15.9945 30.1913 15.322L24.767 12.1935L18.6605 18.4624L24.1978 24.1468ZM0.194908 1.9776C0.0701667 2.37191 0 2.81225 0 3.29463V32.7275C0 33.4901 0.163723 34.1466 0.459983 34.669L16.2417 18.4604L0.194908 1.9776ZM17.4521 19.7014L1.75807 35.8199C2.05823 35.938 2.38178 36 2.72286 36C3.33098 36 3.96443 35.8159 4.60957 35.4476L22.6483 25.0455L17.4521 19.7014Z" fill="black" fill-opacity="0.8"/>
</svg>
