<svg width="44" height="44" viewBox="0 0 44 44" fill="none" xmlns="http://www.w3.org/2000/svg">
    <g clip-path="url(#clip0_632_1157)">
        <path
            d="M21.8409 -0.0524642C21.7694 -0.0395405 21.6987 -0.022017 21.6294 -2.68593e-06C21.2473 0.085631 20.9068 0.301099 20.6658 0.609683C20.4248 0.918268 20.2982 1.30087 20.3077 1.6923V3.38461H5.07692C3.73044 3.38461 2.4391 3.9195 1.487 4.87161C0.534889 5.82372 0 7.11505 0 8.46154L0 30.4615C0 33.264 2.27446 35.5385 5.07692 35.5385H20.3077V36.1731L11.1049 40.7745C10.6983 40.9708 10.3863 41.3207 10.2376 41.7471C10.0889 42.1735 10.1157 42.6414 10.3121 43.0481C10.5084 43.4547 10.8583 43.7667 11.2847 43.9154C11.7111 44.0641 12.1791 44.0373 12.5857 43.8409L20.3077 39.9808V40.6154C20.3077 41.0642 20.486 41.4947 20.8034 41.812C21.1207 42.1294 21.5512 42.3077 22 42.3077C22.4488 42.3077 22.8793 42.1294 23.1966 41.812C23.514 41.4947 23.6923 41.0642 23.6923 40.6154V39.9808L31.4143 43.8409C31.8209 44.0373 32.2889 44.0641 32.7153 43.9154C33.1417 43.7667 33.4916 43.4547 33.6879 43.0481C33.8843 42.6414 33.9111 42.1735 33.7624 41.7471C33.6137 41.3207 33.3017 40.9708 32.8951 40.7745L23.6923 36.1731V35.5385H38.9231C41.7255 35.5385 44 33.264 44 30.4615V8.46154C44 7.11505 43.4651 5.82372 42.513 4.87161C41.5609 3.9195 40.2696 3.38461 38.9231 3.38461H23.6923V1.6923C23.7009 1.45166 23.6579 1.21195 23.5664 0.989212C23.4749 0.766472 23.337 0.565823 23.1617 0.400671C22.9865 0.23552 22.778 0.109668 22.5502 0.0315257C22.3225 -0.0466169 22.0806 -0.0752512 21.8409 -0.0524642ZM3.38462 8.46154H40.6154V30.4615H3.38462V8.46154ZM35.3269 10.1538C34.9478 10.1946 34.5936 10.3622 34.3217 10.6294L28.7692 16.1835L24.9091 12.32C24.7242 12.1303 24.4974 11.9867 24.2469 11.9006C23.9964 11.8146 23.7292 11.7885 23.4668 11.8246C23.2044 11.8606 22.9541 11.9578 22.7361 12.1082C22.5181 12.2586 22.3384 12.4581 22.2115 12.6906L17.1871 21.4703L15.1242 16.2868C15.024 16.0191 14.8577 15.7812 14.6407 15.5952C14.4237 15.4092 14.1632 15.2812 13.8834 15.2231C13.6036 15.1649 13.3137 15.1786 13.0406 15.2628C12.7675 15.347 12.5202 15.499 12.3217 15.7046L7.24477 20.7815C7.08476 20.9414 6.95781 21.1313 6.87117 21.3402C6.78453 21.5492 6.7399 21.7732 6.73982 21.9994C6.73974 22.2256 6.78422 22.4496 6.87071 22.6586C6.95721 22.8677 7.08402 23.0576 7.24392 23.2176C7.40382 23.3776 7.59367 23.5046 7.80263 23.5912C8.0116 23.6779 8.23558 23.7225 8.46179 23.7226C8.688 23.7226 8.91201 23.6782 9.12103 23.5917C9.33005 23.5052 9.51999 23.3784 9.68 23.2185L12.9055 19.9929L15.3391 26.0209C15.4539 26.3232 15.653 26.5863 15.9127 26.779C16.1725 26.9717 16.482 27.0859 16.8046 27.1082C17.1272 27.1305 17.4495 27.0598 17.7332 26.9046C18.0169 26.7494 18.2503 26.5161 18.4055 26.2325L24.0646 16.3426L27.5542 19.8338C27.712 19.9971 27.901 20.1269 28.1101 20.2156C28.3191 20.3043 28.5439 20.35 28.7709 20.35C28.998 20.35 29.2227 20.3043 29.4318 20.2156C29.6408 20.1269 29.8299 19.9971 29.9877 19.8338L36.7569 13.0646C37.0243 12.8171 37.2046 12.49 37.2711 12.1318C37.3376 11.7736 37.2868 11.4035 37.1262 11.0766C36.9655 10.7496 36.7037 10.4832 36.3795 10.3169C36.0553 10.1507 35.6862 10.0935 35.3269 10.1538Z"
            fill="#00000070" />
    </g>
    <defs>
        <clipPath id="clip0_632_1157">
            <rect width="44" height="44" fill="white" />
        </clipPath>
    </defs>
</svg>