<svg width="22" height="22" viewBox="0 0 22 22" fill="none" xmlns="http://www.w3.org/2000/svg">
<circle cx="12" cy="12" r="9.5" stroke="white"/>
<path d="M7.07503 9.13577C7.01493 9.13934 6.95714 9.16019 6.90861 9.19582C6.86008 9.23145 6.82287 9.28033 6.80147 9.3366C6.78006 9.39287 6.77536 9.45413 6.78793 9.513C6.80051 9.57188 6.82983 9.62587 6.87235 9.66848L9.43882 12.2412C9.48116 12.2836 9.53481 12.313 9.59337 12.3257C9.65192 12.3385 9.71292 12.3342 9.76907 12.3132L13.8364 10.7892C14.0021 10.7274 14.1271 10.9439 13.9907 11.0565L10.6377 13.8166C10.5914 13.8547 10.557 13.9054 10.5387 13.9625C10.5204 14.0197 10.5189 14.0809 10.5344 14.1389L11.4793 17.6479C11.4949 17.706 11.527 17.7584 11.5717 17.7987C11.6164 17.8391 11.6718 17.8656 11.7312 17.8752C11.7907 17.8848 11.8516 17.877 11.9067 17.8528C11.9619 17.8286 12.0088 17.789 12.0419 17.7387L17.8172 8.99166C17.8491 8.94324 17.8669 8.8869 17.8686 8.82894C17.8704 8.77098 17.8559 8.71369 17.8269 8.66347C17.7979 8.61325 17.7555 8.57209 17.7045 8.5446C17.6534 8.5171 17.5957 8.50434 17.5379 8.50776L7.07503 9.13577Z" fill="white"/>
</svg>
